<?xml version="1.0" encoding="utf-8"?>
<!-- Generator: Adobe Illustrator 26.0.1, SVG Export Plug-In . SVG Version: 6.00 Build 0)  -->
<svg version="1.1" id="Livello_1" xmlns="http://www.w3.org/2000/svg" xmlns:xlink="http://www.w3.org/1999/xlink" x="0px" y="0px"
	 viewBox="0 0 128 128" style="enable-background:new 0 0 128 128;" xml:space="preserve">
<style type="text/css">
	.st0{fill:#00599C;}
	.st1{fill:#004482;}
	.st2{fill:#659AD2;}
	.st3{fill:#FFFFFF;}
</style>
<path class="st0" d="M118.6,95.5c0.9-1.5,1.4-3.2,1.4-4.8V37.3c0-1.5-0.5-3.3-1.4-4.8L64,64L118.6,95.5z"/>
<path class="st1" d="M68.9,125.9l46.3-26.7c1.3-0.8,2.5-2.1,3.4-3.6L64,64L9.4,95.5c0.9,1.5,2.1,2.9,3.4,3.6l46.3,26.7
	C61.8,127.4,66.2,127.4,68.9,125.9z"/>
<path class="st2" d="M118.6,32.5c-0.9-1.5-2.1-2.9-3.4-3.6L68.9,2.1c-2.7-1.5-7-1.5-9.7,0L12.8,28.8C10.2,30.4,8,34.2,8,37.3v53.5
	c0,1.5,0.5,3.3,1.4,4.8L64,64L118.6,32.5z"/>
<g>
	<path class="st3" d="M64,101.4c-20.6,0-37.4-16.8-37.4-37.4S43.4,26.6,64,26.6c13.3,0,25.7,7.2,32.3,18.7l-16.2,9.4
		c-3.3-5.8-9.5-9.3-16.2-9.3c-10.3,0-18.7,8.4-18.7,18.7c0,10.3,8.4,18.7,18.7,18.7c6.6,0,12.8-3.6,16.2-9.3l16.2,9.4
		C89.7,94.2,77.3,101.4,64,101.4z"/>
</g>
<g>
	<polygon class="st3" points="101.4,61.9 97.2,61.9 97.2,57.8 93.1,57.8 93.1,61.9 88.9,61.9 88.9,66.1 93.1,66.1 93.1,70.2 
		97.2,70.2 97.2,66.1 101.4,66.1 	"/>
</g>
<g>
	<polygon class="st3" points="116.9,61.9 112.8,61.9 112.8,57.8 108.6,57.8 108.6,61.9 104.5,61.9 104.5,66.1 108.6,66.1 
		108.6,70.2 112.8,70.2 112.8,66.1 116.9,66.1 	"/>
</g>
</svg>
