<?xml version="1.0" encoding="UTF-8"?>
<svg id="Livello_1" data-name="Livello 1" xmlns="http://www.w3.org/2000/svg" viewBox="0 0 223 30">
  <defs>
    <style>
      .cls-1 {
        fill: #5865f2;
      }

      .cls-2 {
        fill: #fff;
      }
    </style>
  </defs>
  <rect class="cls-1" width="223" height="30" rx="7.74" ry="7.74"/>
  <path class="cls-2" d="M38.83,7.79c-1.45-.67-3-1.15-4.62-1.44-.03,0-.06,0-.07.04-.2.36-.42.82-.58,1.18-1.76-.26-3.48-.26-5.19,0-.16-.38-.38-.83-.61-1.18-.02-.02-.04-.04-.07-.04-1.39.28-3.18.79-4.61,1.44-.01,0-.02.01-.03.02-2.97,4.42-3.76,8.67-3.33,12.91,0,.02.01.04.03.06,1.94,1.43,3.82,2.3,5.67,2.87.03,0,.06,0,.08-.02.44-.59.82-1.22,1.16-1.89.02-.04,0-.08-.04-.1-.61-.24-1.21-.52-1.78-.85-.04-.02-.05-.09,0-.12.12-.09.24-.18.35-.27.02-.02.05-.02.07-.01,3.72,1.7,7.76,1.7,11.39,0,.02-.01.05,0,.07,0,.12.1.23.19.35.28.04.03.04.1,0,.12-.56.33-1.15.61-1.78.85-.04.02-.06.06-.04.1.34.67.73,1.29,1.15,1.88.02.02.05.04.08.02,1.85-.58,3.74-1.44,5.68-2.87.02-.01.03-.03.03-.06.47-4.9-.79-9.15-3.36-12.91,0-.01-.02-.02-.03-.02h0ZM27.19,18.15c-1.15,0-2.06-1.03-2.06-2.3s.91-2.3,2.06-2.3,2.06,1.03,2.06,2.3-.91,2.3-2.06,2.3ZM34.76,18.15c-1.15,0-2.06-1.03-2.06-2.3s.91-2.3,2.06-2.3,2.06,1.03,2.06,2.3-.91,2.3-2.06,2.3Z"/>
  <g>
    <path class="cls-2" d="M59.05,19.48c-.92,0-1.65-.26-2.21-.78-.55-.52-.83-1.25-.83-2.21h1.73c0,.44.11.79.31,1.05.2.26.52.39.96.39.41,0,.72-.12.91-.37.19-.25.28-.57.28-.98v-6.72h1.73v6.72c0,.93-.26,1.64-.78,2.14-.52.5-1.22.75-2.1.75Z"/>
    <path class="cls-2" d="M66.93,19.48c-.65,0-1.23-.15-1.75-.45s-.93-.71-1.23-1.24c-.3-.53-.45-1.14-.45-1.83s.15-1.3.46-1.83c.31-.53.72-.94,1.24-1.24s1.1-.45,1.75-.45,1.22.15,1.74.45.93.71,1.23,1.24.45,1.14.45,1.83-.15,1.3-.45,1.83-.71.94-1.24,1.24c-.52.3-1.1.45-1.74.45ZM66.93,17.98c.45,0,.84-.17,1.17-.51s.5-.84.5-1.51-.17-1.17-.5-1.5c-.33-.34-.72-.51-1.16-.51s-.85.17-1.18.51c-.33.34-.49.84-.49,1.5s.16,1.17.49,1.51c.33.34.72.51,1.17.51Z"/>
    <path class="cls-2" d="M72.83,11.59c-.31,0-.57-.09-.78-.28-.2-.19-.3-.43-.3-.72s.1-.52.3-.71c.2-.18.46-.28.78-.28s.57.09.78.28c.2.18.3.42.3.71s-.1.53-.3.72c-.2.19-.46.28-.78.28ZM71.97,19.32v-6.7h1.73v6.7h-1.73Z"/>
    <path class="cls-2" d="M75.5,19.32v-6.7h1.53l.13,1.13c.21-.4.51-.71.9-.94s.85-.35,1.38-.35c.83,0,1.47.26,1.93.78.46.52.69,1.29.69,2.3v3.78h-1.73v-3.62c0-.58-.12-1.02-.35-1.32s-.6-.46-1.09-.46-.88.17-1.19.51c-.31.34-.47.82-.47,1.43v3.46h-1.73Z"/>
    <path class="cls-2" d="M86.92,19.32v-6.7h1.53l.15.9c.22-.32.5-.58.86-.78.36-.19.77-.29,1.23-.29,1.04,0,1.77.4,2.2,1.2.24-.37.57-.66.98-.88.41-.22.86-.32,1.34-.32.87,0,1.54.26,2.01.78.47.52.7,1.29.7,2.3v3.78h-1.73v-3.62c0-.58-.11-1.02-.33-1.32s-.56-.46-1.02-.46-.84.17-1.13.51c-.28.34-.43.82-.43,1.43v3.46h-1.73v-3.62c0-.58-.11-1.02-.34-1.32-.22-.31-.57-.46-1.04-.46s-.83.17-1.11.51c-.28.34-.42.82-.42,1.43v3.46h-1.73Z"/>
    <path class="cls-2" d="M100.18,22.29l1.55-3.42h-.4l-2.61-6.25h1.88l1.88,4.71,1.96-4.71h1.84l-4.25,9.67h-1.84Z"/>
    <path class="cls-2" d="M110.66,19.32v-9.45h3.23c1.11,0,2.02.2,2.73.59.72.39,1.25.94,1.59,1.65.35.71.52,1.54.52,2.49s-.17,1.78-.52,2.49c-.35.71-.88,1.26-1.59,1.65-.71.39-1.63.59-2.73.59h-3.23ZM112.38,17.84h1.42c.79,0,1.42-.13,1.88-.38.46-.26.79-.62.99-1.11.2-.48.3-1.06.3-1.75s-.1-1.26-.3-1.74c-.2-.49-.53-.86-.99-1.12s-1.08-.39-1.88-.39h-1.42v6.49Z"/>
    <path class="cls-2" d="M121.14,11.59c-.31,0-.57-.09-.78-.28-.2-.19-.3-.43-.3-.72s.1-.52.3-.71c.2-.18.46-.28.78-.28s.57.09.78.28c.2.18.3.42.3.71s-.1.53-.3.72c-.2.19-.46.28-.78.28ZM120.28,19.32v-6.7h1.73v6.7h-1.73Z"/>
    <path class="cls-2" d="M126.58,19.48c-.59,0-1.12-.1-1.57-.29s-.81-.46-1.08-.8c-.27-.34-.43-.74-.49-1.19h1.74c.05.26.2.48.44.67s.55.28.92.28.65-.08.83-.23c.18-.15.26-.33.26-.53,0-.29-.13-.48-.38-.59-.25-.1-.6-.21-1.05-.3-.29-.06-.58-.14-.88-.23s-.57-.21-.82-.34c-.25-.14-.45-.32-.6-.54-.15-.22-.23-.49-.23-.82,0-.59.24-1.09.71-1.5s1.14-.61,1.99-.61c.79,0,1.42.18,1.9.55.47.37.75.88.84,1.53h-1.63c-.1-.5-.47-.74-1.12-.74-.32,0-.57.06-.75.19s-.26.28-.26.47.13.36.39.47c.26.12.61.23,1.04.32.47.11.9.23,1.29.36s.7.32.94.58c.23.26.35.62.35,1.1,0,.41-.1.79-.32,1.12-.22.33-.55.59-.97.78-.42.19-.92.28-1.5.28Z"/>
    <path class="cls-2" d="M134.19,19.48c-.68,0-1.29-.15-1.81-.45-.52-.3-.93-.71-1.24-1.24-.3-.53-.45-1.14-.45-1.82s.15-1.29.45-1.82c.3-.53.71-.95,1.24-1.24.52-.3,1.12-.45,1.81-.45.85,0,1.57.22,2.16.67.58.45.96,1.06,1.12,1.84h-1.82c-.09-.32-.27-.58-.53-.76-.27-.18-.58-.28-.94-.28-.48,0-.88.18-1.21.54-.33.36-.5.86-.5,1.5s.17,1.14.5,1.5c.33.36.74.54,1.21.54.36,0,.67-.09.94-.27.26-.18.44-.44.53-.77h1.82c-.16.76-.54,1.36-1.12,1.82-.59.46-1.31.69-2.16.69Z"/>
    <path class="cls-2" d="M142.22,19.48c-.65,0-1.23-.15-1.75-.45s-.93-.71-1.23-1.24c-.3-.53-.45-1.14-.45-1.83s.15-1.3.46-1.83c.31-.53.72-.94,1.24-1.24s1.1-.45,1.75-.45,1.22.15,1.74.45.93.71,1.23,1.24.45,1.14.45,1.83-.15,1.3-.45,1.83-.71.94-1.24,1.24c-.52.3-1.1.45-1.74.45ZM142.22,17.98c.45,0,.84-.17,1.17-.51s.5-.84.5-1.51-.17-1.17-.5-1.5c-.33-.34-.72-.51-1.16-.51s-.85.17-1.18.51c-.33.34-.49.84-.49,1.5s.16,1.17.49,1.51c.33.34.72.51,1.17.51Z"/>
    <path class="cls-2" d="M147.19,19.32v-6.7h1.54l.16,1.26c.24-.43.57-.78.99-1.03.42-.26.91-.38,1.48-.38v1.82h-.49c-.38,0-.72.06-1.01.18-.3.12-.53.32-.7.61-.17.29-.25.69-.25,1.2v3.05h-1.73Z"/>
    <path class="cls-2" d="M155.49,19.48c-.63,0-1.19-.15-1.69-.46s-.89-.72-1.17-1.26c-.29-.53-.43-1.13-.43-1.81s.14-1.28.43-1.8c.29-.53.68-.94,1.17-1.24.5-.3,1.06-.45,1.69-.45.5,0,.95.09,1.32.28s.68.45.92.8v-3.94h1.73v9.72h-1.54l-.19-.96c-.22.3-.5.56-.86.78-.36.23-.82.34-1.38.34ZM155.85,17.97c.56,0,1.01-.19,1.37-.56s.53-.85.53-1.44-.18-1.06-.53-1.44-.81-.56-1.37-.56-1,.18-1.36.55c-.36.37-.54.85-.54,1.43s.18,1.07.54,1.44c.36.38.81.57,1.36.57Z"/>
    <path class="cls-2" d="M167.69,19.48c-.69,0-1.3-.12-1.84-.36-.53-.24-.95-.58-1.26-1.03s-.46-.99-.47-1.63h1.82c.02.44.18.81.48,1.11.3.3.72.45,1.25.45.46,0,.82-.11,1.09-.33.27-.22.41-.51.41-.88,0-.39-.12-.69-.36-.9-.24-.22-.56-.39-.95-.53-.4-.13-.82-.28-1.27-.43-.73-.25-1.28-.58-1.67-.97s-.57-.92-.57-1.58c0-.56.12-1.04.4-1.44s.65-.71,1.13-.93c.48-.22,1.03-.33,1.65-.33s1.19.11,1.67.34.86.54,1.13.94c.27.41.42.89.44,1.44h-1.85c0-.33-.14-.63-.38-.88-.25-.26-.59-.38-1.03-.38-.38,0-.7.08-.95.28-.26.19-.38.48-.38.84,0,.32.1.56.3.75s.47.34.81.47c.34.13.73.26,1.17.4.47.16.9.35,1.28.57.39.22.7.5.93.86s.35.81.35,1.37c0,.5-.13.95-.38,1.38-.25.42-.63.76-1.12,1.02s-1.1.38-1.82.38Z"/>
    <path class="cls-2" d="M175.74,19.48c-.67,0-1.27-.14-1.79-.43-.52-.29-.93-.69-1.23-1.22-.3-.52-.45-1.12-.45-1.81s.15-1.31.44-1.85c.29-.54.7-.96,1.21-1.26.52-.3,1.13-.45,1.83-.45.66,0,1.24.14,1.74.43s.9.68,1.18,1.18.42,1.06.42,1.67c0,.1,0,.2,0,.31,0,.11-.01.22-.02.34h-5.09c.04.52.22.93.55,1.23.33.3.73.45,1.19.45.35,0,.65-.08.88-.24.24-.16.42-.36.53-.61h1.75c-.13.42-.33.81-.63,1.15-.29.35-.65.62-1.08.82-.43.2-.91.3-1.45.3ZM175.75,13.87c-.42,0-.8.12-1.12.36-.32.24-.53.6-.62,1.09h3.33c-.03-.44-.19-.79-.49-1.05-.3-.26-.67-.39-1.11-.39Z"/>
    <path class="cls-2" d="M180.56,19.32v-6.7h1.54l.16,1.26c.24-.43.57-.78.99-1.03.42-.26.91-.38,1.48-.38v1.82h-.49c-.38,0-.72.06-1.01.18-.3.12-.53.32-.7.61-.17.29-.25.69-.25,1.2v3.05h-1.73Z"/>
    <path class="cls-2" d="M187.71,19.32l-2.46-6.7h1.81l1.7,5.06,1.7-5.06h1.81l-2.47,6.7h-2.09Z"/>
    <path class="cls-2" d="M196.3,19.48c-.67,0-1.27-.14-1.79-.43-.52-.29-.93-.69-1.23-1.22-.3-.52-.45-1.12-.45-1.81s.15-1.31.44-1.85c.29-.54.7-.96,1.21-1.26.52-.3,1.13-.45,1.83-.45.66,0,1.24.14,1.74.43s.9.68,1.18,1.18.42,1.06.42,1.67c0,.1,0,.2,0,.31,0,.11-.01.22-.02.34h-5.09c.04.52.22.93.55,1.23.33.3.73.45,1.19.45.35,0,.65-.08.88-.24.24-.16.42-.36.53-.61h1.75c-.13.42-.33.81-.63,1.15-.29.35-.65.62-1.08.82-.43.2-.91.3-1.45.3ZM196.31,13.87c-.42,0-.8.12-1.12.36-.32.24-.53.6-.62,1.09h3.33c-.03-.44-.19-.79-.49-1.05-.3-.26-.67-.39-1.11-.39Z"/>
    <path class="cls-2" d="M201.12,19.32v-6.7h1.54l.16,1.26c.24-.43.57-.78.99-1.03.42-.26.91-.38,1.48-.38v1.82h-.49c-.38,0-.72.06-1.01.18-.3.12-.53.32-.7.61-.17.29-.25.69-.25,1.2v3.05h-1.73Z"/>
  </g>
</svg>