<?xml version="1.0" encoding="UTF-8"?>
<svg id="Livello_1" data-name="Livello 1" xmlns="http://www.w3.org/2000/svg" viewBox="0 0 223 30">
  <defs>
    <style>
      .cls-1 {
        fill: #fff;
      }

      .cls-2 {
        fill: #202020;
      }

      .cls-3 {
        fill: #ff5a16;
      }

      .cls-4 {
        fill: #72a4f2;
      }
    </style>
  </defs>
  <rect class="cls-4" width="223" height="30" rx="7.74" ry="7.74"/>
  <g>
    <path class="cls-1" d="M28.71,24.17c-3.33,0-6.03-1.49-7.62-4.19-1.4-2.37-1.52-4.93-1.52-7.8,0-1.7.51-3.18,1.48-4.28.89-1.01,2.15-1.67,3.54-1.84,1.66-.21,3.72-.23,5.87-.23,3.49,0,4.48.04,5.85.18,1.83.18,3.36.86,4.44,1.97,1.1,1.13,1.68,2.63,1.68,4.35v.35c0,2.94-1.96,5.39-4.7,6.06-.2.48-.46.96-.76,1.43h0c-.96,1.5-3.23,4-7.57,4h-.69,0Z"/>
    <path class="cls-1" d="M36.16,7.45c-1.3-.13-2.2-.17-5.71-.17-2.25,0-4.15.02-5.68.22-2.03.26-3.76,1.82-3.76,4.69s.15,5.1,1.32,7.07c1.32,2.25,3.52,3.48,6.38,3.48h.69c3.5,0,5.4-1.86,6.35-3.33.41-.65.71-1.3.91-1.95,2.49-.22,4.32-2.27,4.32-4.78v-.35c0-2.7-1.77-4.58-4.82-4.88h0Z"/>
    <path class="cls-2" d="M21.02,12.18c0-2.87,1.73-4.43,3.76-4.69,1.53-.19,3.44-.22,5.68-.22,3.5,0,4.41.04,5.71.17,3.05.3,4.82,2.18,4.82,4.88v.35c0,2.51-1.84,4.56-4.32,4.78-.19.65-.5,1.3-.91,1.95-.95,1.47-2.85,3.33-6.35,3.33h-.69c-2.85,0-5.06-1.23-6.38-3.48-1.17-1.97-1.32-4.15-1.32-7.07"/>
    <path class="cls-1" d="M22.64,12.2c0,2.79.17,4.58,1.08,6.25,1.04,1.92,2.92,2.66,5.06,2.66h.67c2.81,0,4.17-1.36,4.93-2.55.37-.61.69-1.27.86-2.12l.13-.54h.78c1.73,0,3.22-1.4,3.22-3.2v-.32c0-2.01-1.25-3.07-3.44-3.33-1.23-.11-1.97-.15-5.47-.15-2.36,0-4.04.02-5.32.22-1.79.26-2.51,1.28-2.51,3.09"/>
    <path class="cls-2" d="M35.37,13.69c0,.26.19.45.54.45,1.1,0,1.71-.63,1.71-1.66s-.61-1.69-1.71-1.69c-.35,0-.54.19-.54.45v2.44h0Z"/>
    <path class="cls-3" d="M24.75,13.56c0,1.27.71,2.38,1.62,3.24.61.58,1.56,1.19,2.2,1.58.19.11.39.17.61.17.26,0,.48-.07.65-.17.65-.39,1.6-.99,2.18-1.58.93-.86,1.64-1.97,1.64-3.24,0-1.38-1.04-2.62-2.53-2.62-.89,0-1.49.45-1.95,1.08-.41-.63-1.04-1.08-1.92-1.08-1.51,0-2.51,1.23-2.51,2.62"/>
  </g>
  <g>
    <path d="M59.51,19.48c-.69,0-1.3-.12-1.84-.36-.53-.24-.95-.58-1.26-1.03s-.46-.99-.47-1.63h1.82c.02.44.18.81.48,1.11.3.3.72.45,1.25.45.46,0,.82-.11,1.09-.33.27-.22.41-.51.41-.88,0-.39-.12-.69-.36-.9-.24-.22-.56-.39-.95-.53-.4-.13-.82-.28-1.27-.43-.73-.25-1.28-.58-1.67-.97s-.57-.92-.57-1.58c0-.56.12-1.04.4-1.44s.65-.71,1.13-.93c.48-.22,1.03-.33,1.65-.33s1.19.11,1.67.34.86.54,1.13.94c.27.41.42.89.44,1.44h-1.85c0-.33-.14-.63-.38-.88-.25-.26-.59-.38-1.03-.38-.38,0-.7.08-.95.28-.26.19-.38.48-.38.84,0,.32.1.56.3.75s.47.34.81.47c.34.13.73.26,1.17.4.47.16.9.35,1.28.57.39.22.7.5.93.86s.35.81.35,1.37c0,.5-.13.95-.38,1.38-.25.42-.63.76-1.12,1.02s-1.1.38-1.82.38Z"/>
    <path d="M70.75,12.63v6.7h-1.53l-.13-1.13c-.21.4-.51.71-.9.94-.39.23-.85.35-1.38.35-.83,0-1.47-.26-1.93-.78-.46-.52-.69-1.29-.69-2.29v-3.78h1.73v3.62c0,.58.12,1.02.35,1.32.23.31.6.46,1.09.46s.88-.17,1.19-.51c.31-.34.47-.82.47-1.43v-3.46h1.73Z"/>
    <path d="M72.51,22.29v-9.67h1.54l.19.96c.22-.3.5-.56.86-.78.36-.22.82-.34,1.38-.34.63,0,1.19.15,1.69.46s.89.72,1.17,1.26c.29.53.43,1.13.43,1.81s-.14,1.28-.43,1.8c-.29.53-.68.94-1.17,1.24-.5.3-1.06.45-1.69.45-.5,0-.95-.09-1.32-.28-.38-.19-.68-.46-.92-.8v3.89h-1.73ZM76.12,17.97c.55,0,1-.18,1.36-.55.36-.37.54-.85.54-1.43s-.18-1.07-.54-1.44c-.36-.38-.81-.57-1.36-.57s-1.02.19-1.37.56-.53.85-.53,1.44.18,1.06.53,1.44.81.56,1.37.56Z"/>
    <path d="M81.31,22.29v-9.67h1.54l.19.96c.22-.3.5-.56.86-.78.36-.22.82-.34,1.38-.34.63,0,1.19.15,1.69.46s.89.72,1.17,1.26c.29.53.43,1.13.43,1.81s-.14,1.28-.43,1.8c-.29.53-.68.94-1.17,1.24-.5.3-1.06.45-1.69.45-.5,0-.95-.09-1.32-.28-.38-.19-.68-.46-.92-.8v3.89h-1.73ZM84.92,17.97c.55,0,1-.18,1.36-.55.36-.37.54-.85.54-1.43s-.18-1.07-.54-1.44c-.36-.38-.81-.57-1.36-.57s-1.02.19-1.37.56-.53.85-.53,1.44.18,1.06.53,1.44.81.56,1.37.56Z"/>
    <path d="M93.33,19.48c-.65,0-1.23-.15-1.75-.45s-.93-.71-1.23-1.24c-.3-.53-.45-1.14-.45-1.83s.15-1.3.46-1.83c.31-.53.72-.94,1.24-1.24s1.1-.45,1.75-.45,1.22.15,1.74.45.93.71,1.23,1.24.45,1.14.45,1.83-.15,1.3-.45,1.83-.71.94-1.24,1.24c-.52.3-1.1.45-1.74.45ZM93.33,17.98c.45,0,.84-.17,1.17-.51s.5-.84.5-1.51-.17-1.17-.5-1.5c-.33-.34-.72-.51-1.16-.51s-.85.17-1.18.51c-.33.34-.49.84-.49,1.5s.16,1.17.49,1.51c.33.34.72.51,1.17.51Z"/>
    <path d="M98.29,19.32v-6.7h1.54l.16,1.26c.24-.43.57-.78.99-1.03.42-.26.91-.38,1.48-.38v1.82h-.49c-.38,0-.72.06-1.01.18-.3.12-.53.32-.7.61-.17.29-.25.69-.25,1.2v3.05h-1.73Z"/>
    <path d="M106.62,19.32c-.7,0-1.26-.17-1.69-.51-.42-.34-.63-.95-.63-1.82v-2.92h-1.15v-1.44h1.15l.2-1.8h1.53v1.8h1.81v1.44h-1.81v2.93c0,.32.07.55.21.67.14.12.38.18.72.18h.84v1.47h-1.17Z"/>
    <path d="M112.54,19.32v-6.7h1.53l.15.9c.22-.32.5-.58.86-.78.36-.19.77-.29,1.23-.29,1.04,0,1.77.4,2.2,1.2.24-.37.57-.66.98-.88.41-.22.86-.32,1.34-.32.87,0,1.54.26,2.01.78.47.52.7,1.29.7,2.3v3.78h-1.73v-3.62c0-.58-.11-1.02-.33-1.32s-.56-.46-1.02-.46-.84.17-1.13.51c-.28.34-.43.82-.43,1.43v3.46h-1.73v-3.62c0-.58-.11-1.02-.34-1.32-.22-.31-.57-.46-1.04-.46s-.83.17-1.11.51c-.28.34-.42.82-.42,1.43v3.46h-1.73Z"/>
    <path d="M128.44,19.48c-.67,0-1.27-.14-1.79-.43-.52-.29-.93-.69-1.23-1.22-.3-.52-.45-1.12-.45-1.81s.15-1.31.44-1.85c.29-.54.7-.96,1.21-1.26.52-.3,1.13-.45,1.83-.45.66,0,1.24.14,1.74.43s.9.68,1.18,1.18.42,1.06.42,1.67c0,.1,0,.2,0,.31,0,.11-.01.22-.02.34h-5.09c.04.52.22.93.55,1.23.33.3.73.45,1.19.45.35,0,.65-.08.88-.24.24-.16.42-.36.53-.61h1.75c-.13.42-.33.81-.63,1.15-.29.35-.65.62-1.08.82-.43.2-.91.3-1.45.3ZM128.45,13.87c-.42,0-.8.12-1.12.36-.32.24-.53.6-.62,1.09h3.33c-.03-.44-.19-.79-.49-1.05-.3-.26-.67-.39-1.11-.39Z"/>
    <path d="M139.69,19.48c-.65,0-1.23-.15-1.75-.45s-.93-.71-1.23-1.24c-.3-.53-.45-1.14-.45-1.83s.15-1.3.46-1.83c.31-.53.72-.94,1.24-1.24s1.1-.45,1.75-.45,1.22.15,1.74.45.93.71,1.23,1.24.45,1.14.45,1.83-.15,1.3-.45,1.83-.71.94-1.24,1.24c-.52.3-1.1.45-1.74.45ZM139.69,17.98c.45,0,.84-.17,1.17-.51s.5-.84.5-1.51-.17-1.17-.5-1.5c-.33-.34-.72-.51-1.16-.51s-.85.17-1.18.51c-.33.34-.49.84-.49,1.5s.16,1.17.49,1.51c.33.34.72.51,1.17.51Z"/>
    <path d="M144.65,19.32v-6.7h1.53l.13,1.13c.21-.4.51-.71.9-.94s.85-.35,1.38-.35c.83,0,1.47.26,1.93.78.46.52.69,1.29.69,2.3v3.78h-1.73v-3.62c0-.58-.12-1.02-.35-1.32s-.6-.46-1.09-.46-.88.17-1.19.51c-.31.34-.47.82-.47,1.43v3.46h-1.73Z"/>
    <path d="M156.11,19.32v-9.45h1.73v3.82l3.5-3.82h2.13l-3.48,3.75,3.58,5.7h-2.12l-2.7-4.37-.9.99v3.39h-1.73Z"/>
    <path d="M167.37,19.48c-.65,0-1.23-.15-1.75-.45s-.93-.71-1.23-1.24c-.3-.53-.45-1.14-.45-1.83s.15-1.3.46-1.83c.31-.53.72-.94,1.24-1.24s1.1-.45,1.75-.45,1.22.15,1.74.45.93.71,1.23,1.24.45,1.14.45,1.83-.15,1.3-.45,1.83-.71.94-1.24,1.24c-.52.3-1.1.45-1.74.45ZM167.37,17.98c.45,0,.84-.17,1.17-.51s.5-.84.5-1.51-.17-1.17-.5-1.5c-.33-.34-.72-.51-1.16-.51s-.85.17-1.18.51c-.33.34-.49.84-.49,1.5s.16,1.17.49,1.51c.33.34.72.51,1.17.51Z"/>
    <path d="M172.19,16.13v-1.44h5.66v1.44h-5.66Z"/>
    <path d="M179.77,19.32v-5.25h-.92v-1.44h.92v-.78c0-.81.2-1.39.61-1.73.41-.34.96-.51,1.67-.51h.74v1.47h-.47c-.3,0-.51.06-.63.18-.13.12-.19.32-.19.59v.78h4.32v6.7h-1.73v-5.25h-2.59v5.25h-1.73ZM184.96,11.67c-.32,0-.57-.09-.78-.28s-.3-.43-.3-.72.1-.52.3-.71c.2-.18.46-.28.78-.28s.57.09.78.28c.2.18.3.42.3.71s-.1.53-.3.72c-.2.19-.46.28-.78.28Z"/>
  </g>
</svg>