<?xml version="1.0" encoding="UTF-8"?>
<svg id="Livello_1" xmlns="http://www.w3.org/2000/svg" version="1.1" xmlns:xlink="http://www.w3.org/1999/xlink" viewBox="0 0 223 30">
  <!-- Generator: Adobe Illustrator 29.1.0, SVG Export Plug-In . SVG Version: 2.1.0 Build 142)  -->
  <defs>
    <style>
      .st0 {
        fill: url(#Sfumatura_senza_nome_2);
      }

      .st1 {
        fill: #fff;
      }

      .st2 {
        fill: url(#Sfumatura_senza_nome_21);
      }

      .st3 {
        fill: #c8daea;
      }

      .st4 {
        fill: #a9c6d8;
      }
    </style>
    <linearGradient id="Sfumatura_senza_nome_2" data-name="Sfumatura senza nome 2" x1="0" y1="15" x2="223" y2="15" gradientUnits="userSpaceOnUse">
      <stop offset="0" stop-color="#1d93d2"/>
      <stop offset="1" stop-color="#38b0e3"/>
    </linearGradient>
    <linearGradient id="Sfumatura_senza_nome_21" data-name="Sfumatura senza nome 2" x1="31" y1="5.6" x2="31" y2="28.4" gradientTransform="translate(0 32) scale(1 -1)" xlink:href="#Sfumatura_senza_nome_2"/>
  </defs>
  <rect class="st0" width="223" height="30" rx="7.7" ry="7.7"/>
  <g>
    <g>
      <circle class="st2" cx="31" cy="15" r="11.4"/>
      <path class="st3" d="M27.3,15.8l1.4,3.8s.2.4.4.4,2.9-2.8,2.9-2.8l3-5.8-7.5,3.5v1Z"/>
      <path class="st4" d="M29.1,16.8l-.3,2.8s-.1.8.7,0,1.7-1.5,1.7-1.5"/>
      <path class="st1" d="M27.3,16l-2.8-.9s-.3-.1-.2-.4c0,0,0-.1.2-.2.6-.4,11.4-4.3,11.4-4.3,0,0,.3-.1.5,0,0,0,.2.1.2.2,0,0,0,.2,0,.2,0,0,0,.1,0,.2,0,1.1-2,9-2,9,0,0-.1.5-.5.5-.2,0-.4,0-.6-.2-.8-.7-3.7-2.6-4.3-3.1,0,0,0,0,0,0,0,0,0-.1,0-.1,0,0,5-4.4,5.1-4.9,0,0,0,0,0,0-.3.1-6.1,3.8-6.7,4.2,0,0,0,0-.1,0Z"/>
    </g>
    <g>
      <path d="M56.2,16.4c.6.3,1.3.5,1.8.5.8,0,1.3-.6,1.3-1.7v-6.1h1.9v6.2c0,1-.3,1.8-.9,2.4s-1.4.9-2.3.9-1.6-.2-2.4-.6l.6-1.5Z"/>
      <path d="M63.5,17.5c-.7-.7-1-1.6-1-2.5s.3-1.8,1-2.5c.7-.7,1.5-1.1,2.6-1.1s1.9.4,2.6,1.1c.7.7,1,1.6,1,2.5s-.3,1.8-1,2.5c-.7.7-1.5,1.1-2.6,1.1s-1.9-.4-2.6-1.1ZM67.2,16.4c.3-.4.5-.8.5-1.4s-.2-1.1-.5-1.4c-.3-.4-.7-.6-1.1-.6s-.8.2-1.1.6c-.3.4-.5.8-.5,1.4s.2,1.1.5,1.4c.3.4.7.6,1.2.6s.8-.2,1.2-.6Z"/>
      <path d="M71,8.8c.2-.2.5-.3.8-.3s.5.1.8.3.3.5.3.7-.1.5-.3.8c-.2.2-.5.3-.8.3s-.6-.1-.8-.3c-.2-.2-.3-.5-.3-.8s.1-.6.3-.8ZM70.8,11.6h1.9v6.9h-1.9v-6.9Z"/>
      <path d="M74.2,11.7h1.6c0-.1.1.6.1.6.5-.6,1.2-.9,2.1-.9s1.2.2,1.6.7c.4.5.6,1.1.6,1.9v4.4h-1.9v-4.2c0-.8-.3-1.2-.8-1.2s-.9.2-1.1.6c-.3.4-.4,1-.4,1.7v3.1h-1.9v-6.7Z"/>
      <path d="M86.7,10.8h-2.4v-1.7h6.7v1.7h-2.4v7.6h-1.9v-7.6Z"/>
      <path d="M96.7,18.1c-.8.3-1.6.5-2.4.5s-2-.3-2.7-1-1-1.5-1-2.6.3-1.9.9-2.6c.6-.7,1.4-1,2.4-1s1.8.4,2.4,1.1c.6.7.8,1.7.8,2.9h-4.6c.2,1.1.8,1.6,1.9,1.6s1.3-.1,2-.4l.4,1.5ZM95.2,14.2c0-.5-.3-.8-.5-.9s-.5-.2-.8-.2c-.7,0-1.2.4-1.3,1.2h2.7Z"/>
      <path d="M98.2,8.8l1.9-.3v7.9c0,.2,0,.4.1.4,0,0,.2.1.4.1v1.6c-.9,0-1.4-.2-1.8-.5-.4-.3-.6-.8-.6-1.5v-7.8Z"/>
      <path d="M107.5,18.1c-.8.3-1.6.5-2.4.5s-2-.3-2.7-1-1-1.5-1-2.6.3-1.9.9-2.6c.6-.7,1.4-1,2.4-1s1.8.4,2.4,1.1c.6.7.8,1.7.8,2.9h-4.6c.2,1.1.8,1.6,1.9,1.6s1.3-.1,2-.4l.4,1.5ZM106,14.2c0-.5-.3-.8-.5-.9s-.5-.2-.8-.2c-.7,0-1.2.4-1.3,1.2h2.7Z"/>
      <path d="M110,19.4c.7.3,1.4.5,2.1.5s.9-.2,1.2-.5c.3-.3.4-.8.4-1.3v-.4c-.5.5-1.1.7-1.8.7s-1.7-.3-2.3-1-.9-1.5-.9-2.5.3-1.8.9-2.5,1.4-1,2.3-1,1.4.3,1.9.8v-.6c.1,0,1.8.1,1.8.1v6.6c0,1-.3,1.8-1,2.4-.7.6-1.5.9-2.5.9s-1.8-.2-2.6-.7l.6-1.5ZM113.3,16.3c.3-.3.5-.8.5-1.4s-.2-1-.5-1.4c-.3-.3-.7-.5-1.2-.5s-.9.2-1.1.5c-.3.4-.4.8-.4,1.4s.1,1,.4,1.4c.3.4.6.5,1.1.5s.9-.2,1.2-.5Z"/>
      <path d="M117,11.7h1.6c0-.1.2.7.2.7.5-.7,1.1-1,2-1v1.6c-.7,0-1.1.2-1.5.7s-.5,1.1-.5,1.9v2.9h-1.9v-6.7Z"/>
      <path d="M126.5,17.8c-.5.5-1.1.8-1.9.8s-1.7-.4-2.3-1.1c-.6-.7-.9-1.6-.9-2.5s.3-1.8.9-2.5c.6-.7,1.4-1.1,2.3-1.1s1.3.2,1.8.7v-.5h1.9v6.9h-1.7v-.6ZM126,16.4c.3-.4.5-.8.5-1.5s-.2-1.1-.5-1.4c-.3-.4-.7-.6-1.2-.6s-.9.2-1.1.6c-.3.4-.4.9-.4,1.4s.1,1,.4,1.4c.3.4.6.6,1.1.6s.9-.2,1.2-.5Z"/>
      <path d="M129.8,11.7h1.6c0-.1.1.5.1.5.4-.5,1-.8,1.7-.8s1.5.3,1.9,1c.5-.7,1.1-1,2-1s1.2.2,1.6.7c.4.5.6,1.1.6,1.9v4.4h-1.9v-4.2c0-.8-.3-1.2-.8-1.2s-.6.2-.9.6c-.2.4-.3.9-.3,1.7v3.2h-1.9v-4.2c0-.8-.3-1.2-.8-1.2s-.6.2-.9.6c-.2.4-.3.9-.3,1.6v3.3h-1.9v-6.7Z"/>
      <path d="M149.6,18.1c-.7.3-1.5.5-2.3.5s-2-.3-2.7-1-1-1.5-1-2.6.3-1.9,1-2.6c.7-.7,1.6-1,2.7-1s1.5.2,2.4.5l-.5,1.5c-.7-.3-1.3-.4-1.8-.4s-1,.2-1.3.6c-.3.4-.5.9-.5,1.4s.2,1,.5,1.4c.3.4.8.6,1.3.6s1.2-.1,1.8-.4l.5,1.5Z"/>
      <path d="M150.7,8.8l1.9-.3v3.7c.5-.5,1.1-.8,1.9-.8s1.2.2,1.6.7c.4.5.6,1.1.6,1.9v4.4h-1.9v-4.2c0-.8-.3-1.2-.8-1.2s-.9.2-1.1.6c-.3.4-.4,1-.4,1.7v3.1h-1.9v-9.6Z"/>
      <path d="M163,17.8c-.5.5-1.1.8-1.9.8s-1.7-.4-2.3-1.1c-.6-.7-.9-1.6-.9-2.5s.3-1.8.9-2.5c.6-.7,1.4-1.1,2.3-1.1s1.3.2,1.8.7v-.5h1.9v6.9h-1.7v-.6ZM162.5,16.4c.3-.4.5-.8.5-1.5s-.2-1.1-.5-1.4c-.3-.4-.7-.6-1.2-.6s-.9.2-1.1.6c-.3.4-.4.9-.4,1.4s.1,1,.4,1.4c.3.4.6.6,1.1.6s.9-.2,1.2-.5Z"/>
      <path d="M166.2,11.7h1.6c0-.1.1.6.1.6.5-.6,1.2-.9,2.1-.9s1.2.2,1.6.7c.4.5.6,1.1.6,1.9v4.4h-1.9v-4.2c0-.8-.3-1.2-.8-1.2s-.9.2-1.1.6c-.3.4-.4,1-.4,1.7v3.1h-1.9v-6.7Z"/>
      <path d="M173.7,11.7h1.6c0-.1.1.6.1.6.5-.6,1.2-.9,2.1-.9s1.2.2,1.6.7c.4.5.6,1.1.6,1.9v4.4h-1.9v-4.2c0-.8-.3-1.2-.8-1.2s-.9.2-1.1.6c-.3.4-.4,1-.4,1.7v3.1h-1.9v-6.7Z"/>
      <path d="M187,18.1c-.8.3-1.6.5-2.4.5s-2-.3-2.7-1-1-1.5-1-2.6.3-1.9.9-2.6c.6-.7,1.4-1,2.4-1s1.8.4,2.4,1.1c.6.7.8,1.7.8,2.9h-4.6c.2,1.1.8,1.6,1.9,1.6s1.3-.1,2-.4l.4,1.5ZM185.5,14.2c0-.5-.3-.8-.5-.9-.2-.2-.5-.2-.8-.2-.7,0-1.2.4-1.3,1.2h2.7Z"/>
      <path d="M188.5,8.8l1.9-.3v7.9c0,.2,0,.4.1.4,0,0,.2.1.4.1v1.6c-.9,0-1.4-.2-1.8-.5-.4-.3-.6-.8-.6-1.5v-7.8Z"/>
    </g>
  </g>
</svg>